<svg xmlns="http://www.w3.org/2000/svg" viewBox="0 0 900 900">
  <g transform="translate(900 900) rotate(180)">
  <rect width="900" height="900" fill="#f8fafc"/>
  <rect x="100" y="90" width="700" height="720" rx="36" fill="#0a0a0a"/>
  <text x="155" y="165" fill="#fff" font-family="Arial" font-size="42" font-weight="700">Absensi QR Code</text>
  <rect x="165" y="230" width="250" height="250" rx="26" fill="#fff"/>
  <rect x="205" y="270" width="55" height="55" fill="#0a0a0a"/>
  <rect x="315" y="270" width="55" height="55" fill="#0a0a0a"/>
  <rect x="205" y="380" width="55" height="55" fill="#0a0a0a"/>
  <rect x="287" y="352" width="32" height="32" fill="#0a0a0a"/>
  <rect x="340" y="405" width="32" height="32" fill="#0a0a0a"/>
  <rect x="465" y="245" width="260" height="58" rx="14" fill="#262626"/>
  <rect x="465" y="338" width="260" height="58" rx="14" fill="#262626"/>
  <rect x="465" y="431" width="260" height="58" rx="14" fill="#262626"/>
  <rect x="165" y="570" width="560" height="72" rx="18" fill="#f97316"/>
  <text x="292" y="617" fill="#fff" font-family="Arial" font-size="30" font-weight="700">Rekap Peserta</text>
  <rect x="165" y="690" width="560" height="48" rx="12" fill="#171717" stroke="#404040"/>
  </g>
</svg>
