<svg xmlns="http://www.w3.org/2000/svg" viewBox="0 0 900 900">
  <g transform="translate(900 900) rotate(180)">
  <rect width="900" height="900" fill="#111827"/>
  <rect x="70" y="90" width="760" height="520" rx="28" fill="#f8fafc"/>
  <rect x="70" y="90" width="760" height="92" rx="28" fill="#0f172a"/>
  <text x="112" y="148" fill="#fff" font-family="Arial" font-size="34" font-weight="700">Dashboard Kasir UMKM</text>
  <rect x="110" y="225" width="190" height="116" rx="18" fill="#ffedd5"/>
  <rect x="332" y="225" width="190" height="116" rx="18" fill="#dcfce7"/>
  <rect x="554" y="225" width="220" height="116" rx="18" fill="#e0f2fe"/>
  <text x="132" y="278" fill="#9a3412" font-family="Arial" font-size="22" font-weight="700">Omzet Hari Ini</text>
  <text x="132" y="314" fill="#0f172a" font-family="Arial" font-size="34" font-weight="700">Rp 2,8 jt</text>
  <text x="354" y="278" fill="#166534" font-family="Arial" font-size="22" font-weight="700">Transaksi</text>
  <text x="354" y="314" fill="#0f172a" font-family="Arial" font-size="34" font-weight="700">86 Nota</text>
  <text x="576" y="278" fill="#075985" font-family="Arial" font-size="22" font-weight="700">Stok Menipis</text>
  <text x="576" y="314" fill="#0f172a" font-family="Arial" font-size="34" font-weight="700">12 Produk</text>
  <rect x="110" y="390" width="664" height="38" rx="8" fill="#e5e7eb"/>
  <rect x="110" y="456" width="584" height="38" rx="8" fill="#fed7aa"/>
  <rect x="110" y="522" width="710" height="38" rx="8" fill="#bbf7d0"/>
  <rect x="185" y="665" width="530" height="120" rx="26" fill="#f97316"/>
  <text x="266" y="737" fill="#fff" font-family="Arial" font-size="40" font-weight="700">Input Transaksi</text>
  </g>
</svg>
