<svg xmlns="http://www.w3.org/2000/svg" viewBox="0 0 900 900">
  <g transform="translate(900 900) rotate(180)">
  <rect width="900" height="900" fill="#0a0a0a"/>
  <text x="80" y="115" fill="#fff" font-family="Arial" font-size="44" font-weight="700">AI Content Planner</text>
  <rect x="80" y="170" width="740" height="130" rx="26" fill="#171717" stroke="#404040"/>
  <text x="120" y="225" fill="#f97316" font-family="Arial" font-size="28" font-weight="700">Input usaha: Kopi Susu Lokal</text>
  <text x="120" y="265" fill="#a3a3a3" font-family="Arial" font-size="24">Target: mahasiswa dan pekerja muda</text>
  <rect x="80" y="360" width="220" height="210" rx="24" fill="#fff"/>
  <rect x="340" y="360" width="220" height="210" rx="24" fill="#fff"/>
  <rect x="600" y="360" width="220" height="210" rx="24" fill="#fff"/>
  <rect x="80" y="620" width="220" height="150" rx="24" fill="#fff"/>
  <rect x="340" y="620" width="220" height="150" rx="24" fill="#fff"/>
  <rect x="600" y="620" width="220" height="150" rx="24" fill="#fff"/>
  <circle cx="125" cy="410" r="16" fill="#f97316"/>
  <circle cx="385" cy="410" r="16" fill="#f97316"/>
  <circle cx="645" cy="410" r="16" fill="#f97316"/>
  <rect x="120" y="455" width="135" height="18" rx="9" fill="#111827"/>
  <rect x="380" y="455" width="135" height="18" rx="9" fill="#111827"/>
  <rect x="640" y="455" width="135" height="18" rx="9" fill="#111827"/>
  </g>
</svg>
