<svg xmlns="http://www.w3.org/2000/svg" viewBox="0 0 900 900">
  <g transform="translate(900 900) rotate(180)">
  <rect width="900" height="900" fill="#f8fafc"/>
  <rect x="110" y="100" width="680" height="700" rx="36" fill="#0a0a0a"/>
  <text x="158" y="170" fill="#fff" font-family="Arial" font-size="38" font-weight="700">Sistem Booking Jasa</text>
  <rect x="155" y="230" width="590" height="96" rx="18" fill="#fff"/>
  <text x="190" y="290" fill="#0a0a0a" font-family="Arial" font-size="28" font-weight="700">Pilih layanan: Haircut Premium</text>
  <rect x="155" y="370" width="118" height="95" rx="16" fill="#fff"/>
  <rect x="294" y="370" width="118" height="95" rx="16" fill="#fff"/>
  <rect x="433" y="370" width="118" height="95" rx="16" fill="#fff"/>
  <rect x="572" y="370" width="118" height="95" rx="16" fill="#fff"/>
  <text x="190" y="430" fill="#f97316" font-family="Arial" font-size="30" font-weight="700">10:00</text>
  <text x="329" y="430" fill="#f97316" font-family="Arial" font-size="30" font-weight="700">11:30</text>
  <text x="468" y="430" fill="#f97316" font-family="Arial" font-size="30" font-weight="700">14:00</text>
  <text x="607" y="430" fill="#f97316" font-family="Arial" font-size="30" font-weight="700">16:30</text>
  <rect x="155" y="525" width="590" height="58" rx="12" fill="#262626"/>
  <rect x="155" y="610" width="590" height="58" rx="12" fill="#262626"/>
  <rect x="155" y="700" width="590" height="66" rx="16" fill="#22c55e"/>
  <text x="276" y="744" fill="#fff" font-family="Arial" font-size="30" font-weight="700">Kirim ke WhatsApp</text>
  </g>
</svg>
